<mxfile host="app.diagrams.net" modified="2021-08-27T13:20:19.230Z" agent="5.0 (Windows NT 10.0; Win64; x64) AppleWebKit/537.36 (KHTML, like Gecko) Chrome/92.0.4515.159 Safari/537.36" etag="bm-PE8zffSrGzros48Fw" version="15.0.2" type="github" pages="3">
  <diagram id="0Jroy8pLgJWvvqIhOJpj" name="Page-1">
    <mxGraphModel dx="868" dy="450" grid="1" gridSize="10" guides="1" tooltips="1" connect="1" arrows="1" fold="1" page="1" pageScale="1" pageWidth="850" pageHeight="1100" math="0" shadow="0">
      <root>
        <mxCell id="0" />
        <mxCell id="1" parent="0" />
        <mxCell id="FSHXK4mCu5AKaCYNO4c--2" value="" style="rounded=0;whiteSpace=wrap;html=1;direction=south;" vertex="1" parent="1">
          <mxGeometry x="240" y="40" width="320" height="420" as="geometry" />
        </mxCell>
        <mxCell id="FSHXK4mCu5AKaCYNO4c--3" value="" style="rounded=1;whiteSpace=wrap;html=1;" vertex="1" parent="1">
          <mxGeometry x="310" y="200" width="200" height="30" as="geometry" />
        </mxCell>
        <mxCell id="FSHXK4mCu5AKaCYNO4c--4" value="" style="rounded=0;whiteSpace=wrap;html=1;fillColor=#ffe6cc;strokeColor=#d79b00;" vertex="1" parent="1">
          <mxGeometry x="240" y="40" width="320" height="110" as="geometry" />
        </mxCell>
        <mxCell id="FSHXK4mCu5AKaCYNO4c--5" value="username" style="text;html=1;strokeColor=none;fillColor=none;align=center;verticalAlign=middle;whiteSpace=wrap;rounded=0;" vertex="1" parent="1">
          <mxGeometry x="330" y="205" width="150" height="20" as="geometry" />
        </mxCell>
        <mxCell id="FSHXK4mCu5AKaCYNO4c--6" value="password" style="rounded=1;whiteSpace=wrap;html=1;" vertex="1" parent="1">
          <mxGeometry x="310" y="240" width="200" height="30" as="geometry" />
        </mxCell>
        <mxCell id="FSHXK4mCu5AKaCYNO4c--9" value="" style="rounded=1;whiteSpace=wrap;html=1;gradientColor=#b3b3b3;fillColor=#f5f5f5;strokeColor=#666666;" vertex="1" parent="1">
          <mxGeometry x="345" y="295" width="120" height="30" as="geometry" />
        </mxCell>
        <mxCell id="FSHXK4mCu5AKaCYNO4c--10" value="login" style="text;html=1;strokeColor=none;fillColor=none;align=center;verticalAlign=middle;whiteSpace=wrap;rounded=0;" vertex="1" parent="1">
          <mxGeometry x="380" y="300" width="40" height="20" as="geometry" />
        </mxCell>
        <mxCell id="FSHXK4mCu5AKaCYNO4c--13" value="sign up" style="whiteSpace=wrap;html=1;aspect=fixed;fillColor=#f8cecc;strokeColor=#b85450;gradientColor=#ea6b66;" vertex="1" parent="1">
          <mxGeometry x="385" y="350" width="40" height="40" as="geometry" />
        </mxCell>
        <mxCell id="FSHXK4mCu5AKaCYNO4c--14" style="edgeStyle=orthogonalEdgeStyle;rounded=0;orthogonalLoop=1;jettySize=auto;html=1;exitX=0.5;exitY=1;exitDx=0;exitDy=0;" edge="1" parent="1">
          <mxGeometry relative="1" as="geometry">
            <mxPoint x="405" y="400" as="sourcePoint" />
            <mxPoint x="405" y="400" as="targetPoint" />
          </mxGeometry>
        </mxCell>
        <mxCell id="FSHXK4mCu5AKaCYNO4c--18" value="About us." style="text;html=1;strokeColor=none;fillColor=none;align=center;verticalAlign=middle;whiteSpace=wrap;rounded=0;" vertex="1" parent="1">
          <mxGeometry x="250" y="430" width="70" height="20" as="geometry" />
        </mxCell>
        <mxCell id="FSHXK4mCu5AKaCYNO4c--20" value="" style="endArrow=none;html=1;entryX=0;entryY=1;entryDx=0;entryDy=0;" edge="1" parent="1" target="FSHXK4mCu5AKaCYNO4c--4">
          <mxGeometry width="50" height="50" relative="1" as="geometry">
            <mxPoint x="560" y="40" as="sourcePoint" />
            <mxPoint x="420" y="90" as="targetPoint" />
            <Array as="points">
              <mxPoint x="560" y="40" />
            </Array>
          </mxGeometry>
        </mxCell>
        <mxCell id="FSHXK4mCu5AKaCYNO4c--21" value="" style="endArrow=none;html=1;entryX=0;entryY=0;entryDx=0;entryDy=0;exitX=1;exitY=1;exitDx=0;exitDy=0;" edge="1" parent="1" source="FSHXK4mCu5AKaCYNO4c--4" target="FSHXK4mCu5AKaCYNO4c--4">
          <mxGeometry width="50" height="50" relative="1" as="geometry">
            <mxPoint x="400" y="240" as="sourcePoint" />
            <mxPoint x="450" y="190" as="targetPoint" />
          </mxGeometry>
        </mxCell>
        <mxCell id="FSHXK4mCu5AKaCYNO4c--22" value="" style="rounded=0;whiteSpace=wrap;html=1;direction=south;" vertex="1" parent="1">
          <mxGeometry x="240" y="520" width="380" height="420" as="geometry" />
        </mxCell>
        <mxCell id="FSHXK4mCu5AKaCYNO4c--23" value="Login" style="text;strokeColor=none;fillColor=none;html=1;fontSize=24;fontStyle=1;verticalAlign=middle;align=center;" vertex="1" parent="1">
          <mxGeometry x="345" y="160" width="100" height="30" as="geometry" />
        </mxCell>
        <mxCell id="FSHXK4mCu5AKaCYNO4c--24" value="Sign up" style="text;strokeColor=none;fillColor=none;html=1;fontSize=24;fontStyle=1;verticalAlign=middle;align=center;" vertex="1" parent="1">
          <mxGeometry x="350" y="535" width="100" height="30" as="geometry" />
        </mxCell>
        <mxCell id="FSHXK4mCu5AKaCYNO4c--25" value="Name" style="rounded=1;whiteSpace=wrap;html=1;" vertex="1" parent="1">
          <mxGeometry x="285" y="590" width="220" height="20" as="geometry" />
        </mxCell>
        <mxCell id="FSHXK4mCu5AKaCYNO4c--27" value="email" style="rounded=1;whiteSpace=wrap;html=1;" vertex="1" parent="1">
          <mxGeometry x="285" y="630" width="220" height="20" as="geometry" />
        </mxCell>
        <mxCell id="FSHXK4mCu5AKaCYNO4c--28" value="password" style="rounded=1;whiteSpace=wrap;html=1;" vertex="1" parent="1">
          <mxGeometry x="285" y="670" width="220" height="20" as="geometry" />
        </mxCell>
        <mxCell id="FSHXK4mCu5AKaCYNO4c--29" value="phone number" style="rounded=1;whiteSpace=wrap;html=1;" vertex="1" parent="1">
          <mxGeometry x="285" y="710" width="220" height="20" as="geometry" />
        </mxCell>
        <mxCell id="FSHXK4mCu5AKaCYNO4c--30" value="*Business name" style="rounded=1;whiteSpace=wrap;html=1;" vertex="1" parent="1">
          <mxGeometry x="285" y="750" width="220" height="20" as="geometry" />
        </mxCell>
        <mxCell id="FSHXK4mCu5AKaCYNO4c--31" value="Region" style="rounded=1;whiteSpace=wrap;html=1;" vertex="1" parent="1">
          <mxGeometry x="285" y="830" width="220" height="20" as="geometry" />
        </mxCell>
        <mxCell id="FSHXK4mCu5AKaCYNO4c--32" value="Address" style="rounded=1;whiteSpace=wrap;html=1;" vertex="1" parent="1">
          <mxGeometry x="285" y="790" width="220" height="20" as="geometry" />
        </mxCell>
        <mxCell id="FSHXK4mCu5AKaCYNO4c--33" value="&lt;h3&gt;&lt;b&gt;&lt;u&gt;sign up&lt;/u&gt;&lt;/b&gt;&lt;/h3&gt;" style="whiteSpace=wrap;html=1;aspect=fixed;gradientColor=#b3b3b3;fillColor=#f5f5f5;strokeColor=#666666;" vertex="1" parent="1">
          <mxGeometry x="550" y="660" width="50" height="50" as="geometry" />
        </mxCell>
        <mxCell id="s9U9jVLza5ebtQFpq8Rp-1" value="" style="ellipse;whiteSpace=wrap;html=1;aspect=fixed;fillColor=#e51400;strokeColor=#B20000;fontColor=#ffffff;" vertex="1" parent="1">
          <mxGeometry x="240" y="520" width="40" height="40" as="geometry" />
        </mxCell>
        <mxCell id="s9U9jVLza5ebtQFpq8Rp-4" value="" style="endArrow=none;html=1;exitX=0;exitY=1;exitDx=0;exitDy=0;entryX=1;entryY=0;entryDx=0;entryDy=0;" edge="1" parent="1" source="s9U9jVLza5ebtQFpq8Rp-1" target="s9U9jVLza5ebtQFpq8Rp-1">
          <mxGeometry width="50" height="50" relative="1" as="geometry">
            <mxPoint x="250" y="570" as="sourcePoint" />
            <mxPoint x="300" y="530" as="targetPoint" />
          </mxGeometry>
        </mxCell>
        <mxCell id="s9U9jVLza5ebtQFpq8Rp-5" value="" style="endArrow=none;html=1;entryX=0;entryY=0;entryDx=0;entryDy=0;exitX=1;exitY=1;exitDx=0;exitDy=0;" edge="1" parent="1" source="s9U9jVLza5ebtQFpq8Rp-1" target="s9U9jVLza5ebtQFpq8Rp-1">
          <mxGeometry width="50" height="50" relative="1" as="geometry">
            <mxPoint x="280" y="560" as="sourcePoint" />
            <mxPoint x="300" y="530" as="targetPoint" />
          </mxGeometry>
        </mxCell>
        <mxCell id="s9U9jVLza5ebtQFpq8Rp-6" value="" style="ellipse;whiteSpace=wrap;html=1;aspect=fixed;fillColor=#e51400;strokeColor=#B20000;fontColor=#ffffff;" vertex="1" parent="1">
          <mxGeometry x="240" y="40" width="40" height="40" as="geometry" />
        </mxCell>
        <mxCell id="s9U9jVLza5ebtQFpq8Rp-8" value="" style="endArrow=none;html=1;entryX=1;entryY=0;entryDx=0;entryDy=0;exitX=0;exitY=1;exitDx=0;exitDy=0;" edge="1" parent="1" source="s9U9jVLza5ebtQFpq8Rp-6" target="s9U9jVLza5ebtQFpq8Rp-6">
          <mxGeometry width="50" height="50" relative="1" as="geometry">
            <mxPoint x="240" y="100" as="sourcePoint" />
            <mxPoint x="290" y="50" as="targetPoint" />
          </mxGeometry>
        </mxCell>
        <mxCell id="s9U9jVLza5ebtQFpq8Rp-9" value="" style="endArrow=none;html=1;entryX=0;entryY=0;entryDx=0;entryDy=0;exitX=1;exitY=1;exitDx=0;exitDy=0;" edge="1" parent="1" source="s9U9jVLza5ebtQFpq8Rp-6" target="s9U9jVLza5ebtQFpq8Rp-6">
          <mxGeometry width="50" height="50" relative="1" as="geometry">
            <mxPoint x="250" y="100" as="sourcePoint" />
            <mxPoint x="300" y="50" as="targetPoint" />
          </mxGeometry>
        </mxCell>
        <mxCell id="ybYBSAJBtvHyRNTxzyyX-1" value="* Denotes optional fields" style="text;html=1;strokeColor=none;fillColor=none;align=center;verticalAlign=middle;whiteSpace=wrap;rounded=0;" vertex="1" parent="1">
          <mxGeometry x="240" y="900" width="160" height="20" as="geometry" />
        </mxCell>
      </root>
    </mxGraphModel>
  </diagram>
  <diagram id="qrCWRvRI-VbcxUDhBdou" name="Page-2">
    <mxGraphModel dx="868" dy="450" grid="1" gridSize="10" guides="1" tooltips="1" connect="1" arrows="1" fold="1" page="1" pageScale="1" pageWidth="850" pageHeight="1100" math="0" shadow="0">
      <root>
        <mxCell id="YDhgUEq8NMFfj6ic2yer-0" />
        <mxCell id="YDhgUEq8NMFfj6ic2yer-1" parent="YDhgUEq8NMFfj6ic2yer-0" />
        <mxCell id="FrQx_xP-0CcwSULL19m4-1" value="" style="rounded=0;whiteSpace=wrap;html=1;" vertex="1" parent="YDhgUEq8NMFfj6ic2yer-1">
          <mxGeometry x="70" y="40" width="730" height="360" as="geometry" />
        </mxCell>
        <mxCell id="FrQx_xP-0CcwSULL19m4-6" value="&lt;h1&gt;Welcome (User)&lt;/h1&gt;&lt;p&gt;&lt;br&gt;&lt;/p&gt;" style="text;html=1;strokeColor=none;fillColor=none;spacing=5;spacingTop=-20;whiteSpace=wrap;overflow=hidden;rounded=0;" vertex="1" parent="YDhgUEq8NMFfj6ic2yer-1">
          <mxGeometry x="70" y="40" width="270" height="40" as="geometry" />
        </mxCell>
        <mxCell id="dO2qQ3ZHadAOC3qE45s8-0" value="&lt;font style=&quot;font-size: 21px&quot;&gt;Order&amp;nbsp;&lt;/font&gt;" style="rounded=1;whiteSpace=wrap;html=1;" vertex="1" parent="YDhgUEq8NMFfj6ic2yer-1">
          <mxGeometry x="260" y="120" width="270" height="60" as="geometry" />
        </mxCell>
        <mxCell id="dO2qQ3ZHadAOC3qE45s8-1" value="&lt;font style=&quot;font-size: 21px&quot;&gt;Distribute&lt;/font&gt;" style="rounded=1;whiteSpace=wrap;html=1;" vertex="1" parent="YDhgUEq8NMFfj6ic2yer-1">
          <mxGeometry x="260" y="220" width="270" height="60" as="geometry" />
        </mxCell>
        <mxCell id="dO2qQ3ZHadAOC3qE45s8-2" value="None of the above?" style="text;html=1;strokeColor=none;fillColor=none;align=center;verticalAlign=middle;whiteSpace=wrap;rounded=0;" vertex="1" parent="YDhgUEq8NMFfj6ic2yer-1">
          <mxGeometry x="305" y="320" width="180" height="20" as="geometry" />
        </mxCell>
        <mxCell id="dO2qQ3ZHadAOC3qE45s8-3" value="" style="rounded=0;whiteSpace=wrap;html=1;" vertex="1" parent="YDhgUEq8NMFfj6ic2yer-1">
          <mxGeometry x="70" y="440" width="730" height="360" as="geometry" />
        </mxCell>
        <mxCell id="dO2qQ3ZHadAOC3qE45s8-4" value="&lt;h1&gt;Order&lt;/h1&gt;&lt;p&gt;please fill the details below to request your order&lt;/p&gt;" style="text;html=1;strokeColor=none;fillColor=none;spacing=5;spacingTop=-20;whiteSpace=wrap;overflow=hidden;rounded=0;" vertex="1" parent="YDhgUEq8NMFfj6ic2yer-1">
          <mxGeometry x="80" y="450" width="300" height="70" as="geometry" />
        </mxCell>
        <mxCell id="dO2qQ3ZHadAOC3qE45s8-5" value="&#xa;&#xa;&lt;span style=&quot;color: rgb(0, 0, 0); font-family: helvetica; font-size: 12px; font-style: normal; font-weight: 400; letter-spacing: normal; text-align: center; text-indent: 0px; text-transform: none; word-spacing: 0px; background-color: rgb(248, 249, 250); display: inline; float: none;&quot;&gt;Item name&lt;/span&gt;&#xa;&#xa;" style="rounded=1;whiteSpace=wrap;html=1;" vertex="1" parent="YDhgUEq8NMFfj6ic2yer-1">
          <mxGeometry x="170" y="540" width="330" height="30" as="geometry" />
        </mxCell>
        <mxCell id="dO2qQ3ZHadAOC3qE45s8-6" value="Quantity" style="rounded=1;whiteSpace=wrap;html=1;" vertex="1" parent="YDhgUEq8NMFfj6ic2yer-1">
          <mxGeometry x="170" y="620" width="330" height="30" as="geometry" />
        </mxCell>
        <mxCell id="dO2qQ3ZHadAOC3qE45s8-7" value="Cancel" style="rounded=1;whiteSpace=wrap;html=1;" vertex="1" parent="YDhgUEq8NMFfj6ic2yer-1">
          <mxGeometry x="650" y="740" width="140" height="30" as="geometry" />
        </mxCell>
        <mxCell id="dO2qQ3ZHadAOC3qE45s8-8" value="Submit" style="rounded=1;whiteSpace=wrap;html=1;" vertex="1" parent="YDhgUEq8NMFfj6ic2yer-1">
          <mxGeometry x="80" y="740" width="90" height="30" as="geometry" />
        </mxCell>
        <mxCell id="dO2qQ3ZHadAOC3qE45s8-9" value="Available suppliers" style="rounded=1;whiteSpace=wrap;html=1;" vertex="1" parent="YDhgUEq8NMFfj6ic2yer-1">
          <mxGeometry x="170" y="670" width="330" height="30" as="geometry" />
        </mxCell>
        <mxCell id="dO2qQ3ZHadAOC3qE45s8-10" value="Type" style="rounded=1;whiteSpace=wrap;html=1;" vertex="1" parent="YDhgUEq8NMFfj6ic2yer-1">
          <mxGeometry x="170" y="580" width="330" height="30" as="geometry" />
        </mxCell>
      </root>
    </mxGraphModel>
  </diagram>
  <diagram id="62s2M6GIQ3n2fobgXOk3" name="Page-3">
    <mxGraphModel dx="868" dy="450" grid="1" gridSize="10" guides="1" tooltips="1" connect="1" arrows="1" fold="1" page="1" pageScale="1" pageWidth="850" pageHeight="1100" math="0" shadow="0">
      <root>
        <mxCell id="cVJH5jPAubQ9RdkLhXRU-0" />
        <mxCell id="cVJH5jPAubQ9RdkLhXRU-1" parent="cVJH5jPAubQ9RdkLhXRU-0" />
      </root>
    </mxGraphModel>
  </diagram>
</mxfile>
